<svg xmlns="http://www.w3.org/2000/svg" pointer-events="none" class="leaflet-zoom-animated" width="1000" height="709" viewBox="-88 -59 1061 709" style="transform: translate3d(-88px, -59px, 0px) scale(1);"><g><path class="leaflet-interactive" stroke="#fff" stroke-opacity="1" stroke-width="2" stroke-linecap="round" stroke-linejoin="round" stroke-dasharray="1,6" fill="none" d="M256 283L258 281L256 279L256 271L250 268L248 270L247 268"/><path class="leaflet-interactive" stroke="#fff" stroke-opacity="1" stroke-width="0.7" stroke-linecap="round" stroke-linejoin="round" fill="none" d="M574 475L574 475M573 475L573 475M578 476L578 476M570 477L570 477M575 479L575 479M567 423L565 425L564 424L564 426L561 425L559 427L556 426L554 428L544 430L540 433L540 435L543 438L541 440L537 440L535 434L537 430L536 429L522 429M528 428L528 428M548 443L548 443M548 443L548 443M548 443L548 443M548 443L548 443M548 442L548 442M548 442L548 442M555 429L555 429M560 427L560 427M561 427L561 427M561 427L561 427M561 427L560 428L561 427M561 427L561 427M562 528L562 528M562 528L562 528M562 528L562 528M562 528L562 528M563 427L563 427M567 424L567 424M567 423L567 423M567 423L567 423M567 423L567 423M567 423L567 423M567 423L567 423M567 423L567 423M572 423L569 422L571 420L569 421L568 418L567 423M568 425L568 425M569 420L569 420M570 423L570 423M570 423L570 423M570 423L570 423M571 423L571 423M571 426L571 426M573 422L572 423M572 420L572 420M593 412L593 414L590 417L584 417L582 419L580 417L577 420L575 418L574 421L574 419L572 420M572 420L572 420M572 420L572 420M572 421L572 421M572 420L573 420M572 420L572 420M573 420L573 420M573 420L573 420M573 422L573 422M573 421L573 421M573 420L573 420M573 420L573 422M573 421L573 421M573 420L573 420M573 420L573 420M573 421L573 421M573 420L573 420M573 420L573 420M573 421L573 421M573 420L573 420M573 421L573 421M573 421L573 421M573 421L573 421M573 421L573 421M573 420L573 420M573 422L573 422M573 422L573 422M573 421L573 422M573 422L573 422M573 422L573 422M573 422L573 422M573 422L573 422M573 421L573 421M573 421L573 421M573 422L573 422M573 421L573 421M573 421L573 421M573 421L573 421M573 421L573 421M573 421L573 421M573 421L573 421M573 421L573 421M573 422L573 421M573 422L573 422M573 422L573 422M573 422L573 422M573 422L573 422M573 422L573 422M573 422L573 422M573 422L573 422M573 421L573 421M573 421L573 421M573 421L573 421M573 421L573 421M574 421L574 421M582 419L582 419M583 419L583 419M585 418L585 418M585 418L585 418M593 412L593 412M593 412L593 412M593 412L593 412M593 412L593 412M593 412L593 412M593 412L593 412M593 412L593 412M603 402L604 405L598 411L593 412M594 411L594 411M596 413L596 413M603 406L603 406M603 402L603 402M603 402L603 402M603 402L604 403L603 402M606 402L603 402M604 404L604 404M604 404L604 404M606 403L606 403M606 403L606 403M606 403L605 404L606 403M606 403L606 403M606 402L606 402M606 402L606 402M606 402L606 402M608 402L606 402M606 403L606 403M606 403L606 403M608 402L608 402M611 399L609 399L608 402M608 402L608 402M608 402L608 402M608 402L608 402M608 401L608 401M610 397L610 397M611 398L611 398M611 399L611 399M617 395L612 394L614 396L611 397L612 398L610 396L611 399M612 395L612 395M614 395L614 395M615 395L615 395M615 395L615 395M615 395L615 395M615 392L615 392M615 395L615 395M615 393L615 393M616 393L616 393M616 395L616 395M616 392L616 392M616 396L616 396M616 393L616 393M616 393L616 393M617 395L617 395M617 395L617 395M617 395L617 395M617 395L617 395M628 373L626 372L619 382L620 383L618 385L618 382L618 384L616 384L618 387L615 388L616 391L614 393L616 393L615 394L617 392L617 395M617 387L617 387M617 393L617 393M617 394L617 394M618 386L618 386M618 386L618 386M618 388L618 388M618 388L618 388M618 388L618 388M618 388L618 388M619 390L619 390M619 387L619 387M619 387L619 387M625 375L625 375M625 380L625 380M625 380L625 380M625 380L625 380M627 247L625 247L622 253L616 255L610 264L607 263L606 266L604 263L602 263L600 271L602 271L603 274L611 275L613 278L611 278L610 280L613 284L617 284L617 282L621 279L620 278L626 277L630 279M654 253L654 255L651 257L650 256L643 258L628 268L627 266L632 264L632 262L628 260L637 250L633 245L629 245L627 247M628 373L628 373M635 361L632 362L632 368L629 371L628 370L628 373M628 373L628 373M628 373L628 373M628 374L628 374M630 279L630 281L640 281L639 286L627 289L626 292L624 292L624 294L621 295L621 293L621 295L612 305L612 307L622 314L626 324L626 328L634 335L634 337L629 335L627 337L629 339M629 348L629 348M629 339L634 343L635 347L632 345L627 348L630 349L634 354L636 354L635 355M630 280L630 279M631 279L631 279M631 279L631 279M631 279L631 279M631 279L631 279M631 279L631 279M631 280L631 280M631 280L631 280M631 280L631 280M631 370L631 370M631 371L631 371M631 371L631 371M631 371L631 371M631 371L631 371M631 351L631 351M633 366L633 366M635 355L633 356L635 357L635 361M635 351L635 351M635 355L635 355M635 355L635 355M635 355L635 355M635 287L635 287M636 353L636 353M636 353L636 353M636 353L636 353M636 353L636 353M636 353L636 353M636 353L636 353M636 353L636 353M636 353L636 353M636 280L636 280M638 353L638 353M638 353L638 353M638 353L638 353M638 353L638 353M639 352L639 352M639 351L639 351M639 354L639 354M639 351L639 351M643 260L643 260M643 260L643 260M644 260L644 260M644 258L644 258M527 448L532 443L544 440L547 444L544 447L542 453L535 457L527 455L527 448M531 433L531 433M534 547L535 545L538 546L536 545L534 547M538 543L539 542L538 543M542 541L543 540L542 541M542 433L540 433L542 433M543 433L542 432L543 433M543 434L543 434M550 467L551 466L550 467M551 545L551 545M551 543L551 543M551 542L551 542M551 474L551 474M551 536L552 537L551 536M552 544L552 544M552 475L552 475M554 541L554 541M554 473L554 473M556 467L557 468L556 467M558 473L558 473M558 476L559 475L558 476M558 472L559 471L558 472M558 529L558 529M558 561L559 560L558 561M558 559L559 560L558 559M558 428L559 427L558 428M559 535L559 535M559 565L559 565M559 561L559 561M559 563L559 563M559 565L559 565M562 566L562 566M562 446L562 446M564 541L565 540L564 541M567 423L567 423M567 534L568 533L567 534M568 545L569 544L568 545M569 449L569 449M569 542L570 541L569 542M569 545L574 542L575 543L573 545L569 545M570 535L570 535M570 534L571 535L570 534M572 523L572 523M574 518L574 518M574 519L574 519M574 541L575 540L574 541M575 535L576 534L575 535M575 526L576 525L575 526M575 514L576 513L575 514M576 545L576 545M576 513L576 513M576 522L576 522M576 517L577 516L576 517M576 474L576 474M577 548L577 548M577 542L577 542M578 518L578 518M578 546L578 546M580 538L581 539L580 538M581 493L581 493M582 526L582 526M582 538L583 537L582 538M585 528L586 527L585 528M586 433L586 433M586 432L587 433L586 432M586 531L586 531M587 525L587 525M590 522L592 522L590 522M592 521L592 521M592 473L592 473M593 435L593 437L593 435M596 412L594 412L596 412M597 520L597 520M597 516L597 516M601 519L601 519M614 397L615 396L614 397M616 411L615 412L616 411M616 384L617 383L616 384M619 414L619 411L625 401L630 396L632 396L634 398L634 403L631 409L631 413L626 420L626 426L621 420L619 414M621 381L621 381M627 372L628 371L627 372M632 337L635 339L631 339L628 336L629 335L632 337M630 419L630 419M631 424L631 424M633 341L631 339L633 341M633 340L634 341L633 340M634 352L633 353L634 352M634 342L634 342M634 350L634 350M636 350L637 351L636 350M636 356L635 355L636 356M637 352L637 354L634 351L637 352M637 354L637 354M637 356L636 355L637 356M637 351L638 350L637 351M637 354L638 353L637 354M637 349L637 349M638 353L638 353M643 259L643 259M644 265L644 265M645 392L647 392L645 392M648 390L649 391L648 390M655 390L655 390M600 482L601 483L600 482M556 574L556 574M555 575L555 575M556 575L556 575"/><path class="leaflet-interactive" stroke="#F2F7F7" stroke-opacity="1" stroke-width="0.2" stroke-linecap="round" stroke-linejoin="round" stroke-dasharray="1,10" fill="none" d="M375 294L366 291L356 291L348 293L345 298L344 297L342 299L339 297L330 302L321 301L321 299L319 298L317 298L312 303L299 301L296 309L294 311L289 312M439 329L436 330L437 331L435 334L431 334L432 337L428 335L427 338L425 336L422 336L421 333L419 331L418 332L419 331L416 330L415 328L409 330L380 322L374 314L376 313L376 306L374 306L373 303L376 297L372 295L375 294M397 265L378 270L379 273L382 272L381 278L383 278L388 284L383 287L383 289L386 291L384 295L378 293L376 295L375 294M468 312L472 314L476 311L473 309L473 307L477 303L476 302L480 300L479 298L482 295L478 287L479 284L473 278L472 279L467 277L465 273L464 274L459 270L459 272L457 272L449 264L446 266L444 264L442 267L434 263L434 269L432 269L431 272L427 274L423 271L415 271L412 267L409 268L407 266L403 266L402 263L397 265M429 225L425 228L427 231L426 234L420 237L417 236L409 243L407 247L401 248L399 258L396 262L397 265M492 281L485 277L485 271L489 269L492 264L490 262L491 261L485 261L482 264L477 262L474 263L474 266L472 268L465 265L464 261L454 256L460 248L459 245L451 245L451 247L450 246L447 248L447 246L444 248L444 245L441 243L439 239L439 233L435 224M472 319L471 324L467 322L468 327L462 329L457 325L455 327L449 324L445 314L441 313L439 314L439 316L437 316L439 320L437 324L438 325L436 326L439 329M451 360L449 346L446 341L449 340L442 330L439 329M443 370L443 368L447 370L447 362L448 364L450 362L449 361L451 360M500 374L498 370L495 373L493 371L493 365L489 365L489 368L486 369L485 374L481 378L482 386L479 388L479 386L472 389L472 387L470 387L470 383L463 373L460 374L458 371L459 369L457 366L455 364L453 366L453 370L451 368L451 360M468 312L464 312L468 318L472 319M502 325L501 328L495 328L492 325L493 322L491 318L484 317L481 312L476 315L478 319L473 324L472 319M519 277L516 274L510 272L514 265L512 261L508 262L508 264L507 263L505 267L505 275L503 278L492 281M492 281L495 281L495 283L497 283L501 287L501 297L504 298L504 300L506 300L509 303L509 298L513 298L514 295L509 290L511 288L511 284L516 284M500 374L499 377L496 378L493 376L487 380L488 385L495 384L492 393L496 397L494 401M494 401L494 403L498 403L500 407L505 406L507 408L506 412L505 411L502 414M534 389L533 392L530 391L529 392L531 392L529 394L525 394L522 397L517 396L516 393L506 401L500 398L496 402L494 401M509 367L507 365L503 366L503 368L509 372L507 374L500 374M516 284L516 286L520 288L521 287L527 292L527 302L520 302L519 306L515 306L513 304L511 305L509 309L512 312L510 312L511 314L509 316L511 319L505 319L504 322L506 323L504 326L502 325M526 332L520 332L519 330L518 331L518 329L515 330L514 327L507 328L507 326L505 326L503 328L502 325M532 367L531 370L529 370L528 367L527 368L527 366L525 365L525 361L521 363L520 360L518 360L516 364L515 363L510 367L510 365L509 367M509 367L508 363L504 362L504 360L500 358L504 354L502 351L506 349L508 351L511 350L511 352L514 353L518 345L521 346L526 338L526 336L524 335M514 352L514 352M514 352L514 352M516 284L516 280L519 277M547 261L547 259L543 262L541 262L540 260L540 262L536 264L532 269L530 272L530 276L529 275L527 279L522 279L522 277L519 277M524 335L526 332M526 332L535 337M535 337L540 341L539 345L533 348L525 348L527 351L525 355L526 356L527 354L532 361M532 361L532 367M570 362L568 362L567 355L563 358L563 355L557 357L554 354L546 352L542 352L542 356L534 356L532 361M534 389L534 387L532 387L534 379L529 380L529 378L532 376L533 377L534 374L532 367M554 401L551 401L549 397L547 399L546 398L550 391L548 391L549 387L543 386L540 390L538 388L536 390L534 389M546 322L544 324L542 322L534 323L537 326L539 326L538 329L536 328L534 330L535 337M536 429L536 430M541 425L539 425L536 429M537 441L538 441M539 441L541 440M541 309L540 306L543 300L541 286L545 279L542 273L546 269L545 268L548 262L547 261M541 309L546 319L546 322M541 309L551 307L553 304L555 305L555 303L561 303L567 299L568 292M541 425L541 423L543 423L544 420L550 416L550 410L554 408L554 401M542 440L543 439M581 340L579 338L576 339L575 336L570 337L568 331L555 331L552 328L551 329L546 322M571 247L571 249L568 249L567 251L564 250L561 251L560 253L558 251L554 259L551 258L547 261M554 401L556 397L561 399L564 394L570 394M578 294L568 292M568 292L566 288L569 286L568 285L571 278L566 271L569 267L568 265L573 264L575 260L574 257L570 254L571 253M570 394L570 389L572 388L570 388L571 384L569 383L570 381L567 376L568 372L571 371L570 370L572 368L572 364L570 362M587 355L586 356L582 354L581 356L579 356L580 357L577 358L578 359L572 359L570 362M570 394L570 396L576 395L576 397L572 401L574 403L581 400L584 402L586 399M571 253L571 253M571 253L575 251L573 251L573 248L571 247M594 228L592 234L586 234L581 236L581 238L577 237L578 233L575 232L569 239L571 247M580 293L578 294M578 294L578 294M582 294L580 293M588 309L588 311L591 312L592 315L589 318L584 314L584 319L582 319L581 322L579 324L578 323L577 325L580 327L580 329L586 330L586 336L584 336L581 340M587 355L587 351L585 349L585 345L587 343L581 340M602 272L598 277L592 277L590 280L588 280L588 282L586 282L586 284L581 289L582 294M588 309L582 309L582 307L580 307L580 305L577 304L587 295L581 298L582 294M582 330L582 330M584 259L584 259M598 252L596 250L597 248L598 249L598 247L594 247L592 243L587 248L584 249L586 251L585 253L582 254L582 257L584 259M584 259L584 259M584 259L585 260M585 260L585 260M585 260L590 260M596 411L593 401L586 399M586 399L585 396L590 388L591 381L595 380L595 375L598 372L601 373L606 369M604 359L603 357L599 357L598 354L596 354L593 357L592 356L594 354L592 352L589 355L587 355M589 309L588 309M597 309L596 311L596 309L593 306L591 306L589 309M616 342L615 343L612 341L608 341L610 339L606 335L608 331L607 328L611 330L612 327L610 325L606 327L604 323L602 323L604 318L600 318L601 316L599 314L595 314L592 310L589 309M590 260L592 258L593 259M593 264L593 264M593 268L593 264M593 264L593 259M593 268L593 268M600 269L593 268M593 259L593 259M593 259L593 259M593 259L593 259M594 258L593 259M594 258L596 258L596 254M596 254L593 255L594 258M612 241L605 240L605 232L603 232L603 229L601 227L594 228M594 228L594 228M596 411L597 412M597 253L596 254M597 309L597 309M613 304L610 305L606 309L606 311L604 311L602 308L600 310L597 309M598 252L597 253M598 413L598 413M600 254L598 252M599 256L599 256M599 256L600 254M599 256L599 258L602 260M600 254L600 254M600 254L600 254M600 254L600 254M600 254L600 254M602 260L602 260M602 260L601 262L603 263M604 359L603 362L606 365L606 369M604 359L610 353L610 351L614 349L613 348L616 342M622 379L621 377L618 378L615 374L612 377L608 371L609 370L606 369M612 241L614 239L614 233L612 231L614 229L618 232L620 236L624 231L632 228L635 225L636 226L639 224L644 224L645 222L648 221L648 218M617 255L617 252L614 249L612 249L612 247L609 246L612 241M613 304L613 305M626 343L623 346L616 342M622 379L622 379M624 380L625 380M625 271L627 271M634 338L629 335L629 338L626 343M629 347L626 343M630 347L631 347M644 186L644 181L648 180L647 177L646 179L642 179L642 177L638 173L639 170L645 165L647 165L653 158L654 163L655 162L657 151L661 150L661 140L667 127L661 119L658 121L658 123L643 123L640 114L641 111L639 111L636 108L633 111L629 107L633 101L631 97M631 347L632 346M633 346L634 346M635 345L636 345M638 345L639 345M640 344L641 344M683 210L680 209L678 204L675 205L676 200L672 197L667 198L664 196L664 194L654 195L649 185L644 186M644 186L641 188L641 192L638 189L635 190L633 188L632 191L635 193L637 198L635 200L637 208L639 209L644 205L647 214L647 216L645 216L646 218L648 218M648 218L649 217L653 220L655 224L657 221L658 222L660 230L662 232L663 231L661 233L661 237L663 237L665 245M710 217L708 218L702 215L701 211L699 213L699 211L696 213L695 212L693 216L691 216L686 209L683 210M505 301L506 300L505 301"/><path class="leaflet-interactive" stroke="gray" stroke-opacity="1" stroke-width="0.7" stroke-linecap="round" stroke-linejoin="round" fill="none" d="M567 424L567 424M572 420L570 420L569 423L574 423L574 421L572 420"/><path class="leaflet-interactive" stroke="#fff" stroke-opacity="1" stroke-width="2" stroke-linecap="round" stroke-linejoin="round" fill="none" d="M247 268L245 260L248 259L247 256L250 253L251 254L254 251L256 251L256 249L259 250L261 248L262 251L268 251L273 243L278 244L291 235L298 233M287 335L284 332L284 330L287 327L289 331L291 329L291 325L286 319L286 315L289 312L283 308L281 300L276 301L268 296L267 297L264 294L265 291L263 288L261 288L258 285L256 286L252 284L254 282L256 283M287 335L287 335M502 414L499 413L497 417L492 417L490 420L487 418L485 418L482 421L479 418L477 418L476 421L471 420L470 423L472 426L472 432L468 432L466 427L464 429L460 429L457 426L457 424L451 424L453 420L452 418L454 416L449 414L447 408L449 406L443 406L438 408L439 398L447 390L446 389L448 384L448 377L445 374L445 376L443 374L443 370L439 368L439 366L436 369L436 373L432 373L428 369L420 370L420 372L412 375L406 381L394 382L393 376L391 376L388 371L386 373L384 371L376 369L370 375L369 379L367 376L368 371L366 370L364 372L359 373L355 373L350 370L348 372L346 370L346 372L343 369L340 369L338 365L335 366L330 361L331 360L329 359L326 361L321 356L319 356L319 354L315 353L314 350L312 349L308 349L306 353L305 350L297 347L293 343L291 344L287 340L287 335M298 233L298 226L302 223L300 222L303 221L303 217L300 211L300 204L296 202L298 199L302 199L311 195L313 197L318 197L315 194L315 192L321 176M321 176L321 174L328 177L337 178L341 176L343 173L341 165L343 160L347 160L350 158L352 154L351 153L353 151L359 151L361 158L366 161L366 163L370 165L373 164L376 167L377 166L380 169L383 177L385 178L386 183L384 185L385 188L383 192L385 198L386 197L388 199L389 198L395 200L405 200L415 207L421 208L420 211L422 211L423 216L429 225L435 224L449 227L465 226L470 227L477 232L478 231L483 234L493 235L494 237L498 238L501 235L518 228L528 229L541 225L547 218L551 217L554 214L550 208L553 199L557 199L561 202L567 203L571 201L575 195L583 195L589 190L593 184L597 184L598 181L600 182L609 179L611 181L618 180L616 174L607 165L602 164L598 168L589 166L586 169L583 166L583 163L585 162L592 142M522 429L512 425L510 422L512 418L510 416L505 417L502 414M525 558L524 549M533 474L536 478L537 483M541 507L539 515M553 579L561 576M583 548L588 542M592 142L600 146L606 142M606 142L613 139L612 135L615 131L614 129L617 126L619 122L618 121L625 113L624 108L622 106L619 106L625 98L647 94L652 97L653 96L655 99L661 99L663 101L664 100L664 103L666 103L667 107L670 110L669 112L671 113L670 114L673 119L672 120L674 121L673 124L675 124L674 127L677 130L678 137L680 137L679 142L682 146L687 145L691 148L695 147L701 154L705 154L703 157L706 161L704 163L705 165M607 518L610 509M611 476L611 485M619 451L614 459M634 427L628 435M639 412L641 402M705 165L708 169L714 169L719 168L721 166L720 165L721 166L724 163L726 164L733 160L740 160L736 164L737 169L732 174L733 175L730 182L731 184L723 199L714 196L711 200L707 201L710 211L708 223L703 225L703 227L701 223L698 222L697 229L694 228L691 233L683 233L686 238L684 240L677 239L674 235L666 245L654 253M705 165L705 165"/><path class="leaflet-interactive" stroke="#33333300" stroke-opacity="1" stroke-width="0.5" stroke-linecap="round" stroke-linejoin="round" stroke-dasharray="1,6" fill="#fff" fill-opacity="0" fill-rule="evenodd" d="M597 248L599 248L594 247L592 243L587 248L584 249L586 251L585 253L582 254L582 257L585 260L589 260L591 258L592 259L594 257L593 254L598 253L596 251L597 248z"/><path class="leaflet-interactive" stroke="#33333300" stroke-opacity="1" stroke-width="0.5" stroke-linecap="round" stroke-linejoin="round" stroke-dasharray="1,6" fill="#fff" fill-opacity="0" fill-rule="evenodd" d="M601 261L602 260L599 257L599 255L601 255L598 252L596 254L596 258L593 259L594 263L592 267L600 269L602 265L601 264L603 262L600 261zM601 261L601 261z"/><path class="leaflet-interactive" stroke="#33333300" stroke-opacity="1" stroke-width="0.5" stroke-linecap="round" stroke-linejoin="round" stroke-dasharray="1,6" fill="#fff" fill-opacity="0" fill-rule="evenodd" d="M598 248L596 250L601 255L599 255L599 257L606 266L613 260L613 257L617 255L615 249L613 249L610 246L610 244L613 241L605 240L605 232L604 233L602 231L603 230L601 226L595 228L592 234L586 234L581 236L581 238L578 237L578 234L576 232L574 232L572 238L569 239L569 243L573 251L575 251L570 254L574 256L574 262L570 264L567 269L567 273L570 275L571 278L568 284L569 285L566 289L569 292L578 295L580 293L581 294L581 290L585 286L586 282L589 280L590 281L593 277L597 277L602 272L599 269L595 269L592 267L594 263L592 258L590 260L584 260L582 258L582 255L586 251L584 249L587 248L592 243L594 247L598 248zM596 254L593 255L594 258L596 258L596 254zM601 261L600 261zM609 263L609 264z"/><path class="leaflet-interactive" stroke="#33333300" stroke-opacity="1" stroke-width="0.5" stroke-linecap="round" stroke-linejoin="round" stroke-dasharray="1,6" fill="#fff" fill-opacity="0" fill-rule="evenodd" d="M541 309L551 307L554 304L555 305L555 303L561 303L567 299L568 292L566 288L569 286L568 285L571 280L570 275L567 272L569 268L568 265L573 264L575 260L574 257L570 254L575 251L573 251L572 247L567 251L564 250L561 251L560 253L558 251L553 259L551 258L548 261L545 271L542 274L542 276L545 279L541 285L543 297L540 306L541 309z"/><path class="leaflet-interactive" stroke="#33333300" stroke-opacity="1" stroke-width="0.5" stroke-linecap="round" stroke-linejoin="round" stroke-dasharray="1,6" fill="#fff" fill-opacity="0" fill-rule="evenodd" d="M435 224L440 237L438 239L444 245L444 248L448 248L450 246L451 247L451 245L458 245L460 248L459 252L454 256L464 261L464 265L467 265L470 268L472 268L474 266L472 264L477 262L481 264L485 261L490 260L492 264L489 269L485 271L485 277L493 281L502 278L505 275L505 267L507 263L508 264L508 262L511 261L514 264L514 266L510 272L513 274L517 274L517 276L522 277L522 279L527 279L528 276L531 275L530 272L538 263L537 262L538 263L540 261L539 260L541 262L543 262L546 259L548 261L551 258L552 259L558 251L560 253L564 250L567 251L571 249L569 239L572 238L574 232L576 232L578 234L577 237L580 238L585 234L587 236L590 233L591 234L594 232L594 228L598 228L601 226L603 230L602 231L604 233L605 232L605 240L612 241L614 239L614 233L612 231L614 229L619 234L619 236L625 230L626 231L629 228L633 228L639 224L642 225L648 221L648 219L645 216L647 216L647 214L644 205L637 209L635 202L637 198L632 191L633 188L635 190L638 189L641 192L641 188L644 186L643 182L648 180L647 177L645 177L646 178L644 180L642 179L642 177L638 173L639 170L647 165L653 158L655 164L657 152L661 150L660 142L667 127L661 119L658 121L658 123L643 123L640 116L641 111L639 111L636 108L633 111L629 107L633 101L632 98L627 97L619 105L619 107L624 107L625 114L618 121L619 122L614 129L615 130L612 136L614 136L613 139L600 146L592 142L585 158L585 162L583 163L583 166L586 169L589 166L598 169L602 164L607 165L617 175L618 180L616 182L611 181L609 179L601 182L599 181L597 184L593 184L588 190L589 191L584 195L576 195L571 201L567 203L561 202L558 199L553 199L550 207L554 215L546 219L541 225L529 229L518 228L509 231L498 238L495 237L494 235L483 234L479 231L477 232L470 227L449 227L436 225z"/><path class="leaflet-interactive" stroke="#33333300" stroke-opacity="1" stroke-width="0.5" stroke-linecap="round" stroke-linejoin="round" stroke-dasharray="1,6" fill="#fff" fill-opacity="0" fill-rule="evenodd" d="M647 257L651 257L658 249L659 250L665 245L665 241L662 238L663 237L661 237L661 233L663 231L662 232L660 230L660 226L657 221L654 224L654 221L649 217L647 222L644 223L645 224L638 224L638 226L636 225L633 228L629 228L619 236L619 234L614 229L612 231L614 233L614 238L610 243L610 246L613 249L615 249L617 255L623 252L623 250L628 245L633 245L637 249L634 252L635 253L630 257L631 258L628 260L632 262L632 264L631 263L631 265L630 264L628 268L633 265L634 266L633 265L639 260L647 257zM640 262L640 262zM637 263L637 263zM640 262L641 263L640 262zM641 265L640 264L641 265zM643 259L642 260L643 259zM639 262L639 263zM625 249L625 249zM643 260L643 260zM644 265L644 265zM648 257L649 257z"/><path class="leaflet-interactive" stroke="#33333300" stroke-opacity="1" stroke-width="0.5" stroke-linecap="round" stroke-linejoin="round" stroke-dasharray="1,6" fill="#fff" fill-opacity="0" fill-rule="evenodd" d="M696 229L698 222L700 222L704 228L704 226L702 225L706 224L709 221L710 218L702 215L702 211L700 213L698 211L694 213L693 216L691 216L687 210L686 205L683 208L684 209L681 210L678 204L675 205L676 200L674 198L666 198L664 194L660 196L658 194L655 195L651 191L651 187L649 185L645 185L641 188L641 192L638 189L635 190L633 188L632 191L635 193L637 198L635 200L637 208L639 209L644 205L647 214L647 216L645 216L647 218L649 217L652 220L653 219L653 222L655 224L657 221L658 222L660 230L662 232L663 231L661 233L661 237L663 237L662 238L665 241L665 245L668 244L674 235L678 239L685 240L683 233L691 233L694 228L696 229z"/><path class="leaflet-interactive" stroke="#33333300" stroke-opacity="1" stroke-width="0.5" stroke-linecap="round" stroke-linejoin="round" stroke-dasharray="1,6" fill="#fff" fill-opacity="0" fill-rule="evenodd" d="M647 186L651 186L651 190L655 195L658 194L660 196L664 194L666 198L674 198L676 200L675 205L678 204L682 210L684 210L683 207L686 205L687 210L691 216L693 216L693 214L698 211L700 213L702 211L702 215L708 218L709 211L707 202L714 197L723 200L724 199L724 195L731 184L730 183L733 175L732 174L737 169L737 161L740 159L724 163L721 166L720 165L721 166L719 168L708 169L704 164L706 162L703 157L705 154L701 154L694 147L691 148L688 145L682 146L680 144L680 137L678 137L677 130L674 127L675 124L673 124L674 121L672 120L673 119L670 115L671 114L667 106L668 105L664 103L665 102L663 100L657 100L647 94L632 96L631 97L633 101L628 107L631 108L632 111L634 111L637 108L641 112L640 115L643 124L658 123L660 119L667 126L665 134L660 141L661 149L657 151L655 164L653 158L642 169L639 170L638 173L643 180L645 178L646 179L646 177L647 179L648 178L648 180L643 181L644 185L647 186z"/><path class="leaflet-interactive" stroke="#33333300" stroke-opacity="1" stroke-width="0.5" stroke-linecap="round" stroke-linejoin="round" stroke-dasharray="1,6" fill="#fff" fill-opacity="0" fill-rule="evenodd" d="M626 343L630 347L635 344L630 339L628 339L626 343zM634 338L629 335L628 336L631 339L635 339zM633 341L631 339L633 341zM633 340L636 341L633 340zM632 339L631 339zM634 342L634 341zM634 341L634 341z"/><path class="leaflet-interactive" stroke="#33333300" stroke-opacity="1" stroke-width="0.5" stroke-linecap="round" stroke-linejoin="round" stroke-dasharray="1,6" fill="#fff" fill-opacity="0" fill-rule="evenodd" d="M597 310L596 311L593 306L589 308L596 314L599 314L601 318L603 318L602 323L604 323L606 327L610 325L612 327L611 330L607 328L608 331L605 335L607 337L608 336L608 338L610 338L608 341L614 341L613 342L617 342L623 346L630 338L628 337L629 335L634 338L634 335L626 327L622 314L614 308L612 304L609 305L606 311L604 311L602 308L600 310L597 310z"/><path class="leaflet-interactive" stroke="#33333300" stroke-opacity="1" stroke-width="0.5" stroke-linecap="round" stroke-linejoin="round" stroke-dasharray="1,6" fill="#fff" fill-opacity="0" fill-rule="evenodd" d="M606 369L609 370L609 376L612 377L616 374L617 377L621 376L623 379L624 375L628 373L627 370L628 371L632 369L632 361L635 360L633 356L636 354L632 353L627 348L629 346L626 343L623 346L617 342L615 346L612 347L614 349L611 350L609 352L610 353L603 360L603 362L606 365L606 368zM636 353L637 354L637 352L635 351L636 353zM636 351L636 352zM637 356L637 356zM638 346L638 346zM636 350L637 351L636 350zM637 351L637 350zM635 361L635 360zM638 354L638 354zM638 349L638 349zM633 364L634 364zM637 354L637 355zM633 361L633 361zM628 375L628 375zM634 346L635 347L634 346zM634 367L634 367zM636 356L635 355L636 356zM638 353L638 354zM639 347L639 347zM634 367L634 367zM635 351L635 351zM638 353L638 353zM633 353L634 352L633 353zM627 376L627 376zM634 360L635 361L634 360zM635 355L635 356zM634 352L634 352zM634 350L634 350zM636 353L636 353zM637 356L637 355zM628 373L628 373zM641 352L641 352zM637 350L637 350zM637 354L637 354zM641 346L641 346zM627 372L628 371L627 372zM628 372L629 371L628 372zM638 353L638 353zM641 346L641 346zM636 353L637 353zM635 353L635 353zM627 372L627 371zM638 354L638 354zM636 353L636 353z"/><path class="leaflet-interactive" stroke="#33333300" stroke-opacity="1" stroke-width="0.5" stroke-linecap="round" stroke-linejoin="round" stroke-dasharray="1,6" fill="#fff" fill-opacity="0" fill-rule="evenodd" d="M591 315L592 316L588 318L584 314L584 319L582 319L581 322L577 324L580 327L580 329L586 329L586 336L584 336L581 339L585 343L587 343L584 347L588 355L591 354L591 352L594 354L592 356L593 357L596 354L598 354L599 357L606 358L610 353L609 352L614 349L612 347L614 347L616 343L613 342L614 341L608 341L610 339L606 335L608 331L607 328L611 330L612 327L610 325L606 327L604 323L602 323L604 318L600 318L601 316L599 314L595 314L590 309L588 310L589 312L591 312L591 315zM609 339L610 339zM592 356L592 356zM582 330L582 330z"/><path class="leaflet-interactive" stroke="#33333300" stroke-opacity="1" stroke-width="0.5" stroke-linecap="round" stroke-linejoin="round" stroke-dasharray="1,6" fill="#fff" fill-opacity="0" fill-rule="evenodd" d="M611 399L610 396L612 398L611 397L614 396L612 396L612 394L618 394L614 392L616 392L616 388L618 386L616 384L618 384L618 382L619 383L617 385L620 384L619 383L622 380L622 378L617 378L615 374L613 377L610 376L608 368L605 369L605 371L601 373L598 372L595 375L596 377L591 382L592 385L590 389L587 391L585 399L589 399L591 401L590 402L593 401L594 408L597 411L604 405L603 402L607 403L609 401L608 400L611 399zM606 403L605 404L606 403zM614 397L615 396L614 397zM615 393L615 393zM618 388L618 387zM604 404L604 403zM618 383L618 383zM604 403L603 402L604 403zM618 388L618 388zM616 388L615 388zM619 385L619 385zM616 393L616 392zM617 384L617 384zM620 384L620 384zM621 381L621 381zM620 382L620 382zM616 384L617 383L616 384z"/><path class="leaflet-interactive" stroke="#33333300" stroke-opacity="1" stroke-width="0.5" stroke-linecap="round" stroke-linejoin="round" stroke-dasharray="1,6" fill="#fff" fill-opacity="0" fill-rule="evenodd" d="M604 359L603 357L599 357L598 354L596 354L593 357L592 356L594 354L592 352L586 356L582 354L582 356L580 356L577 359L573 359L570 362L572 364L572 369L568 373L567 377L569 377L568 380L571 385L570 387L572 387L570 395L576 396L572 401L574 403L581 400L584 402L585 401L587 392L592 385L591 382L596 378L595 375L598 372L601 373L606 370L606 366L603 362L604 359z"/><path class="leaflet-interactive" stroke="#33333300" stroke-opacity="1" stroke-width="0.5" stroke-linecap="round" stroke-linejoin="round" stroke-dasharray="1,6" fill="#fff" fill-opacity="0" fill-rule="evenodd" d="M589 309L590 306L593 305L596 310L600 310L602 308L605 311L607 308L609 308L608 307L610 305L614 304L614 302L621 295L621 293L621 295L624 294L625 291L626 292L625 289L626 290L634 286L637 287L640 281L630 281L630 279L624 277L620 278L621 279L617 282L617 284L613 284L610 280L613 279L613 277L610 274L607 275L602 272L597 277L593 277L590 280L589 279L589 281L588 280L589 281L586 282L586 284L581 289L581 298L587 294L587 296L585 296L577 304L584 310L589 309zM624 276L625 276zM624 275L624 275zM627 291L626 291zM625 274L625 273zM626 272L626 271zM620 298L620 297zM624 276L623 275zM625 272L625 272zM631 279L631 279zM631 279L631 279zM631 279L631 279zM582 296L582 296z"/><path class="leaflet-interactive" stroke="#33333300" stroke-opacity="1" stroke-width="0.5" stroke-linecap="round" stroke-linejoin="round" stroke-dasharray="1,6" fill="#fff" fill-opacity="0" fill-rule="evenodd" d="M560 331L563 330L566 332L568 330L570 337L575 337L576 339L579 338L581 340L582 337L586 336L586 330L582 330L580 326L577 325L581 323L584 314L588 318L592 316L588 309L582 309L582 307L580 307L579 305L578 306L577 303L587 295L582 296L581 298L582 295L580 293L578 295L569 292L567 299L562 303L555 302L554 305L541 310L548 326L555 331L559 331zM568 331L568 332z"/><path class="leaflet-interactive" stroke="#33333300" stroke-opacity="1" stroke-width="0.5" stroke-linecap="round" stroke-linejoin="round" stroke-dasharray="1,6" fill="#fff" fill-opacity="0" fill-rule="evenodd" d="M547 323L534 323L537 326L539 326L538 329L535 328L534 332L535 337L539 340L540 344L533 348L525 348L527 351L525 355L527 355L530 358L529 359L531 358L532 361L533 358L535 356L536 357L536 355L543 356L543 352L553 354L556 357L560 357L562 355L563 358L567 354L567 360L569 362L572 359L578 359L577 358L583 354L586 356L587 355L587 351L585 349L585 345L587 343L583 342L579 338L576 339L575 336L570 337L568 331L555 331L552 328L551 329L547 323zM531 348L531 348zM547 323L547 323zM560 331L560 331zM561 355L562 355z"/><path class="leaflet-interactive" stroke="#33333300" stroke-opacity="1" stroke-width="0.5" stroke-linecap="round" stroke-linejoin="round" stroke-dasharray="1,6" fill="#fff" fill-opacity="0" fill-rule="evenodd" d="M554 401L556 397L560 397L560 399L562 399L561 396L563 394L567 396L570 393L570 389L572 388L570 388L571 385L569 383L569 377L567 377L567 375L568 372L571 371L570 370L572 368L572 364L569 361L568 362L567 355L563 358L562 355L560 357L556 357L553 354L542 352L542 356L534 356L532 360L532 371L534 375L532 377L531 376L531 378L528 380L533 379L535 381L535 383L533 383L532 386L537 391L537 388L541 390L543 387L549 387L548 390L550 390L546 399L550 397L550 401L554 400zM534 383L534 383z"/><path class="leaflet-interactive" stroke="#33333300" stroke-opacity="1" stroke-width="0.5" stroke-linecap="round" stroke-linejoin="round" stroke-dasharray="1,6" fill="#fff" fill-opacity="0" fill-rule="evenodd" d="M567 423L568 419L574 421L575 418L577 420L580 417L582 419L584 417L590 417L593 414L593 412L596 411L593 401L590 402L591 401L589 399L585 399L585 402L583 402L582 400L574 403L572 401L576 397L575 395L570 396L570 394L564 394L562 396L561 395L563 397L561 399L559 397L555 398L556 399L554 401L554 407L549 412L550 415L547 419L544 420L543 423L541 423L540 426L539 425L537 428L536 427L537 430L535 434L537 440L541 440L543 438L540 435L542 431L554 428L556 426L564 426L567 423zM595 412L595 412zM561 427L560 428L561 427zM558 428L559 428zM572 424L572 424zM542 432L543 433L543 431L542 432zM558 428L558 427zM542 433L540 433L543 433zM568 425L568 425zM568 425L568 425zM563 426L563 426zM569 421L569 421zM572 425L572 425zM572 425L571 425zM593 435L594 436L592 437L594 437L593 435zM562 426L562 426zM541 436L541 436zM543 434L543 434zM543 439L543 439zM586 432L587 433L586 432zM586 433L586 433zM585 418L585 418zM585 418L585 418z"/><path class="leaflet-interactive" stroke="#33333300" stroke-opacity="1" stroke-width="0.5" stroke-linecap="round" stroke-linejoin="round" stroke-dasharray="1,6" fill="#fff" fill-opacity="0" fill-rule="evenodd" d="M534 389L533 392L530 391L529 392L531 392L529 394L528 393L527 396L526 394L524 394L523 397L521 397L515 393L513 397L506 401L499 398L496 402L494 402L501 407L506 406L508 408L507 411L505 411L502 414L505 417L510 416L512 418L510 422L512 423L511 425L522 429L527 427L530 428L530 430L532 430L535 428L536 429L536 427L537 428L540 425L541 426L541 424L544 423L544 421L550 416L550 410L554 408L553 406L555 404L553 400L550 402L549 397L547 399L546 398L550 391L548 391L548 387L543 387L540 390L538 388L537 391L534 389zM499 399L499 399zM531 433L531 433z"/><path class="leaflet-interactive" stroke="#33333300" stroke-opacity="1" stroke-width="0.5" stroke-linecap="round" stroke-linejoin="round" stroke-dasharray="1,6" fill="#fff" fill-opacity="0" fill-rule="evenodd" d="M539 442L532 443L527 448L527 454L529 456L535 458L543 452L543 449L547 445L544 441L539 441zM556 575L556 575zM564 541L565 540zM554 575L554 575zM550 467L551 466L550 467zM600 483L600 482zM556 574L556 574zM552 474L553 474zM551 474L552 474zM569 545L573 545L575 543L574 542L570 545zM570 534L571 535L570 534zM570 535L570 535zM554 473L554 473zM552 472L553 471L552 472zM556 535L556 535zM569 547L569 547zM572 535L572 535zM556 467L557 468L556 467zM576 522L576 522zM585 528L585 527zM575 526L576 525zM568 545L569 544zM534 547L536 545L538 546L534 546zM589 534L589 534zM558 476L559 475L558 476zM559 535L559 535zM574 518L575 518zM558 473L558 473zM590 522L591 522zM557 468L557 468zM550 472L551 472zM582 526L583 526zM576 540L576 540zM574 541L575 540zM580 538L581 539L580 538zM569 542L570 541zM582 530L582 530zM590 532L590 532zM567 534L568 533L567 534zM576 517L577 516L576 517zM575 514L575 513zM578 518L578 518zM551 472L551 472zM570 534L570 535zM538 543L538 542zM592 513L593 514L592 513zM552 471L552 471zM558 472L559 471L558 472zM552 475L553 475zM569 525L569 524zM577 540L577 540zM591 527L591 528zM581 524L581 524zM593 521L593 521zM576 474L576 474zM586 531L586 531zM568 532L568 532zM576 545L576 545zM574 519L575 519zM601 519L601 519zM572 523L572 523zM576 513L576 513zM592 521L592 521zM542 541L543 540L542 541zM550 537L550 537zM580 537L581 537zM564 541L564 541zM571 518L571 518zM597 523L597 522zM572 475L572 475zM543 541L543 541zM582 538L583 537zM551 545L551 545zM551 536L552 536zM542 543L542 543zM557 534L557 534zM590 527L590 527zM554 541L554 541zM574 479L574 479zM578 516L579 516zM571 476L571 476zM587 525L587 524zM597 520L597 519zM577 548L577 548zM561 534L561 534zM552 544L552 544zM556 535L556 535zM558 559L559 559zM575 535L575 534zM577 542L577 541zM562 538L562 538zM567 550L567 550zM592 473L592 473zM597 525L597 524zM562 446L562 446zM574 475L574 475zM569 449L569 449zM559 565L560 565zM551 542L551 542zM556 534L557 534zM561 543L562 543zM559 561L559 561zM558 561L558 560zM581 493L581 493zM567 523L567 523zM569 480L569 480zM562 566L562 566zM559 565L559 565zM557 561L557 561zM556 469L556 469zM556 478L556 478zM559 563L559 563zM558 560L558 560zM564 555L564 555zM588 529L588 529zM578 546L578 545zM551 543L551 543zM570 477L570 477zM578 475L578 476zM592 533L592 533zM559 472L560 472zM548 443L548 443zM584 522L585 522zM596 519L596 520zM560 473L560 473zM585 521L585 521zM558 529L559 529zM575 479L575 479zM597 516L597 517zM600 517L600 517zM572 530L572 530zM576 527L576 528zM559 558L559 558z"/><path class="leaflet-interactive" stroke="#33333300" stroke-opacity="1" stroke-width="0.5" stroke-linecap="round" stroke-linejoin="round" stroke-dasharray="1,6" fill="#fff" fill-opacity="0" fill-rule="evenodd" d="M509 367L510 364L511 367L515 363L516 364L518 360L520 360L521 363L525 361L525 365L527 365L527 367L530 370L533 366L533 362L531 358L529 358L529 356L525 355L527 351L525 349L527 349L528 347L531 348L539 345L540 342L538 339L536 337L532 337L530 334L526 332L526 334L524 334L526 338L522 342L523 341L521 346L517 346L518 347L514 353L512 353L511 350L508 351L504 349L504 351L502 351L504 353L501 359L504 360L504 362L506 362L509 366zM531 347L531 348zM503 352L503 352zM531 348L531 348zM514 353L514 353z"/><path class="leaflet-interactive" stroke="#33333300" stroke-opacity="1" stroke-width="0.5" stroke-linecap="round" stroke-linejoin="round" stroke-dasharray="1,6" fill="#fff" fill-opacity="0" fill-rule="evenodd" d="M467 379L472 389L481 386L481 378L486 373L486 369L487 370L489 368L488 367L492 365L492 369L494 369L492 371L494 373L500 371L501 374L508 374L508 370L504 368L503 369L503 367L506 364L509 367L508 363L504 363L504 361L500 357L504 354L503 351L502 352L505 349L508 351L511 350L511 352L514 353L518 346L522 345L522 341L526 338L524 334L526 334L526 332L522 332L519 330L518 331L518 329L515 330L514 327L507 328L507 326L505 326L503 328L502 325L501 328L495 328L492 325L493 322L491 318L484 317L481 312L476 315L478 319L473 324L472 319L471 324L467 322L468 327L462 329L460 327L459 328L457 324L456 327L449 324L445 314L439 314L437 318L440 321L437 323L438 324L436 326L444 332L448 340L446 342L449 346L451 367L453 370L453 366L455 364L459 368L458 371L461 374L463 372L467 379zM508 351L508 351zM514 352L514 352zM502 351L502 351z"/><path class="leaflet-interactive" stroke="#33333300" stroke-opacity="1" stroke-width="0.5" stroke-linecap="round" stroke-linejoin="round" stroke-dasharray="1,6" fill="#fff" fill-opacity="0" fill-rule="evenodd" d="M532 367L531 370L529 370L528 367L527 368L527 366L525 365L525 361L521 363L521 361L518 360L517 363L515 363L511 367L510 364L509 367L506 364L503 367L503 369L504 368L508 370L508 373L502 373L499 377L496 378L493 376L491 378L489 376L487 380L488 385L495 384L492 393L495 396L497 396L494 400L496 402L500 398L506 402L508 400L507 399L513 397L515 393L517 394L517 396L522 397L524 395L523 394L527 395L527 393L529 394L531 392L529 392L530 391L533 392L534 387L532 387L532 383L534 383L534 379L529 380L531 378L530 377L534 375L532 367zM534 382L534 382zM534 383L535 383z"/><path class="leaflet-interactive" stroke="#33333300" stroke-opacity="1" stroke-width="0.5" stroke-linecap="round" stroke-linejoin="round" stroke-dasharray="1,6" fill="#fff" fill-opacity="0" fill-rule="evenodd" d="M500 374L498 370L497 372L494 373L492 371L494 369L492 369L493 366L489 366L489 368L487 370L486 369L485 374L481 378L482 385L479 388L479 386L473 389L466 379L464 375L465 374L463 372L461 374L458 371L459 368L455 364L453 366L453 370L451 368L451 360L449 360L449 364L447 362L446 365L448 368L446 370L444 368L443 369L444 376L447 375L448 378L448 388L446 388L447 390L439 398L440 399L438 403L440 405L438 407L439 408L443 406L449 406L447 408L449 411L448 412L450 415L454 415L451 423L456 424L460 429L464 429L466 427L468 429L467 430L471 432L472 427L470 422L472 420L475 421L478 418L482 421L485 418L489 420L492 417L493 419L497 417L496 416L499 413L502 414L505 411L507 411L508 408L506 406L501 407L498 403L494 403L496 398L496 396L493 393L495 384L493 383L489 385L487 382L489 376L491 378L493 376L497 378L500 375z"/><path class="leaflet-interactive" stroke="#33333300" stroke-opacity="1" stroke-width="0.5" stroke-linecap="round" stroke-linejoin="round" stroke-dasharray="1,6" fill="#fff" fill-opacity="0" fill-rule="evenodd" d="M375 294L366 291L356 291L348 293L345 298L344 297L342 299L339 297L330 302L321 301L320 298L316 298L316 300L314 300L312 303L300 301L300 303L298 305L297 304L296 309L294 311L290 311L286 315L286 319L291 326L290 331L288 331L287 328L284 329L284 333L287 335L287 341L290 344L293 343L298 348L299 347L303 349L307 353L309 349L314 350L326 361L328 359L331 360L330 361L335 366L338 365L340 369L343 368L345 372L347 370L347 372L351 370L354 373L362 373L364 371L368 371L367 376L369 378L376 369L384 371L386 373L388 371L390 375L394 377L395 382L406 381L412 375L417 374L420 372L420 370L423 369L427 369L434 373L437 371L436 370L438 366L443 370L443 368L447 370L447 362L449 364L449 360L451 360L449 351L450 350L448 343L446 341L449 340L445 336L443 330L436 329L437 332L436 331L435 334L431 334L432 337L428 335L427 338L425 336L422 337L420 335L421 332L418 332L419 331L414 328L406 330L401 327L395 327L390 324L384 324L380 322L374 315L376 313L376 306L374 306L373 303L376 297L372 295L375 294z"/><path class="leaflet-interactive" stroke="#33333300" stroke-opacity="1" stroke-width="0.5" stroke-linecap="round" stroke-linejoin="round" stroke-dasharray="1,6" fill="#fff" fill-opacity="0" fill-rule="evenodd" d="M541 309L540 306L543 299L541 285L545 279L542 273L546 269L546 265L548 262L547 259L543 262L539 260L540 261L538 263L537 262L538 263L531 270L531 275L529 275L527 279L523 279L520 276L516 280L516 286L523 290L524 289L527 292L527 302L520 302L520 306L510 304L511 307L509 309L512 312L510 312L511 314L509 316L511 319L505 319L504 322L506 323L504 326L502 326L506 326L508 328L514 327L515 330L518 329L518 331L519 330L522 333L525 332L535 337L534 330L536 328L540 328L537 325L536 326L536 324L534 323L543 322L544 324L546 322L541 309zM546 320L546 320zM507 327L507 327z"/><path class="leaflet-interactive" stroke="#33333300" stroke-opacity="1" stroke-width="0.5" stroke-linecap="round" stroke-linejoin="round" stroke-dasharray="1,6" fill="#fff" fill-opacity="0" fill-rule="evenodd" d="M510 298L509 303L505 301L506 300L504 300L501 297L501 287L494 281L489 280L487 277L485 277L485 271L489 269L492 264L490 260L485 261L482 264L477 262L474 263L474 266L472 268L465 265L464 261L462 261L456 256L453 256L458 252L460 248L459 245L451 245L451 247L450 246L447 248L447 246L444 248L444 245L441 243L439 239L439 233L435 224L427 226L425 228L427 231L426 234L420 237L417 236L409 243L407 247L401 248L399 258L396 262L397 265L399 263L403 263L403 266L407 266L409 268L412 267L414 271L423 271L427 274L429 272L431 273L431 271L434 268L434 263L443 267L444 264L446 266L448 264L451 265L450 266L457 272L459 273L459 270L462 273L463 272L467 277L475 279L482 295L473 307L473 309L476 312L472 314L465 311L464 312L467 318L472 320L473 319L473 323L476 322L475 321L477 321L478 319L476 318L475 315L477 315L480 312L483 314L484 317L491 318L493 322L492 325L495 328L501 328L502 325L505 325L505 319L511 319L510 312L512 312L509 309L511 307L510 304L519 306L521 305L519 303L520 302L526 303L526 297L528 295L527 291L518 287L515 284L511 284L511 288L509 290L510 293L514 295L513 298L511 298zM506 300L507 300zM480 292L481 292zM507 301L507 301zM510 298L510 298z"/><path class="leaflet-interactive" stroke="#33333300" stroke-opacity="1" stroke-width="0.5" stroke-linecap="round" stroke-linejoin="round" stroke-dasharray="1,6" fill="#fff" fill-opacity="0" fill-rule="evenodd" d="M480 292L480 288L474 278L473 279L471 277L467 277L465 273L464 274L459 270L459 272L457 272L449 264L447 264L446 266L444 264L442 267L437 263L433 263L434 268L431 271L431 273L429 272L427 274L423 271L414 272L412 267L409 268L407 266L403 266L403 264L400 263L388 268L383 268L378 271L379 273L382 272L381 278L388 284L383 287L383 289L386 290L386 293L384 295L378 293L376 295L372 295L376 297L373 302L373 304L376 307L376 313L374 315L380 322L384 324L387 323L395 327L404 328L406 330L414 328L421 333L420 335L422 337L425 336L427 338L428 335L432 337L431 334L432 335L435 334L436 331L437 332L436 329L438 329L437 324L439 321L437 317L440 313L445 315L448 322L452 326L455 327L457 325L459 327L458 328L461 327L463 329L468 327L467 322L470 322L471 324L472 320L468 318L464 313L466 311L471 314L476 312L473 309L473 307L477 303L476 302L480 300L479 298L482 295L481 292z"/><path class="leaflet-interactive" stroke="#33333300" stroke-opacity="1" stroke-width="0.5" stroke-linecap="round" stroke-linejoin="round" stroke-dasharray="1,6" fill="#fff" fill-opacity="0" fill-rule="evenodd" d="M516 284L516 280L519 277L516 274L510 272L514 265L512 261L508 262L508 264L507 263L505 267L505 275L503 278L492 281L494 281L501 288L500 289L502 293L502 298L504 298L504 300L506 300L509 303L509 298L513 298L514 295L510 292L510 286L512 284L516 284zM506 300L506 301zM507 301L507 301z"/><path class="leaflet-interactive" stroke="#33333300" stroke-opacity="1" stroke-width="0.5" stroke-linecap="round" stroke-linejoin="round" stroke-dasharray="1,6" fill="#fff" fill-opacity="0" fill-rule="evenodd" d="M429 225L425 220L422 211L420 211L421 208L417 208L405 200L395 200L389 198L388 199L386 197L385 198L383 193L386 188L384 185L386 181L385 177L383 177L379 168L373 164L370 165L366 163L366 161L361 157L362 156L359 155L359 150L357 152L352 151L352 155L347 160L345 159L341 163L343 172L341 176L337 178L328 177L321 174L315 192L315 194L318 196L317 198L312 197L311 195L309 197L302 199L301 198L296 201L300 204L300 210L303 217L303 220L300 222L301 223L298 226L299 231L294 235L282 240L281 242L279 242L279 244L272 244L267 251L264 250L262 252L262 248L258 250L255 249L256 251L254 251L251 254L250 253L247 256L248 259L245 260L246 265L247 264L246 267L249 270L250 268L255 270L257 278L256 279L258 281L256 283L252 283L263 288L265 290L264 295L267 297L268 296L276 301L281 300L281 304L283 306L282 308L288 312L296 310L297 305L300 303L300 301L312 303L317 298L319 298L322 301L327 302L339 297L341 299L344 298L349 293L353 293L356 291L366 291L376 295L378 293L384 295L386 291L383 288L388 284L382 278L382 272L379 273L378 270L396 265L401 248L407 247L411 241L417 236L419 236L420 238L422 235L424 235L427 231L425 228L427 226z"/><path class="leaflet-interactive" stroke="#33333300" stroke-opacity="1" stroke-width="0.5" stroke-linecap="round" stroke-linejoin="round" stroke-dasharray="1,6" fill="#fff" fill-opacity="0" fill-rule="evenodd" d="M622 421L625 426L626 420L630 415L634 403L634 397L628 397L623 403L621 409L619 410L621 420zM655 390L655 390zM646 392L647 391L646 392zM616 411L615 412zM648 390L648 390zM615 410L614 411L615 410zM615 413L615 413zM615 410L615 410zM635 393L635 393zM630 419L631 419zM631 424L631 424zM635 394L636 394zM614 414L614 414zM621 422L622 422z"/><path class="leaflet-interactive" stroke="#33333300" stroke-opacity="1" stroke-width="0.5" stroke-linecap="round" stroke-linejoin="round" stroke-dasharray="1,6" fill="#fff" fill-opacity="0" fill-rule="evenodd" d="M571 420L571 422L569 422L570 423L574 421L571 420zM571 423L572 423zM573 421L573 421zM573 421L573 421zM573 421L573 421zM573 422L573 422zM573 421L573 421zM573 422L573 422zM573 422L573 422z"/><path class="leaflet-interactive" stroke="#33333300" stroke-opacity="1" stroke-width="0.5" stroke-linecap="round" stroke-linejoin="round" stroke-dasharray="1,6" fill="#fff" fill-opacity="0" fill-rule="evenodd" d="M567 424L567 423zM567 423L567 423z"/><path class="leaflet-interactive" stroke="#33333300" stroke-opacity="1" stroke-width="0.5" stroke-linecap="round" stroke-linejoin="round" stroke-dasharray="1,6" fill="#fff" fill-opacity="0" fill-rule="evenodd" d="M639 412L641 402L639 412zM628 435L634 427L628 435zM614 459L619 450L614 459zM611 484L611 475L611 484zM608 516L607 518L610 509L609 512zM583 549L588 542L583 549zM557 578L553 579L561 576L558 577zM524 557L525 558L524 550L524 557zM539 514L541 511L541 507L540 513zM537 482L533 474L536 480z"/></g></svg>