<svg xmlns="http://www.w3.org/2000/svg" pointer-events="none" class="leaflet-zoom-animated" width="1024" height="714" viewBox="-85 -59 1024 714" style="transform: translate3d(-85px, -59px, 0px);"><g><path class="leaflet-interactive" stroke="white" stroke-opacity="1" stroke-width="1" stroke-linecap="round" stroke-linejoin="round" fill="#fff" fill-opacity="0.2" fill-rule="evenodd" d="M455 400L455 405L466 418L470 415L471 411L476 410L480 405L486 403L484 396L488 391L487 389L489 387L488 386L490 385L492 378L489 378L488 381L486 380L497 372L493 359L494 358L497 359L501 368L503 369L503 372L504 371L505 373L506 378L511 374L517 374L525 370L529 372L530 370L538 367L541 368L544 372L544 377L546 379L553 376L554 374L553 371L550 370L550 367L552 365L551 363L547 364L559 354L562 356L560 364L562 369L570 368L570 372L573 370L574 365L580 360L579 359L582 354L587 353L589 355L590 352L595 352L593 353L593 355L600 355L600 359L602 361L608 361L615 364L614 361L617 358L613 357L616 350L622 349L626 351L629 353L630 358L633 355L638 353L639 354L643 351L646 350L648 352L654 349L657 345L662 343L667 345L675 344L679 339L679 330L684 329L689 324L693 326L694 325L695 323L693 321L693 317L698 311L698 308L700 306L699 304L701 302L707 304L711 301L712 302L719 300L719 295L712 293L708 281L707 279L705 279L704 276L706 272L703 267L704 265L702 265L702 260L706 257L704 254L702 254L703 250L701 249L701 245L696 238L697 235L695 235L691 231L691 228L695 224L694 221L692 221L691 223L681 223L676 227L675 220L673 218L672 219L666 212L669 210L668 207L662 213L657 213L658 212L655 209L655 207L651 210L646 208L644 205L642 206L634 203L636 207L633 208L634 207L631 205L630 208L628 208L629 209L627 213L627 219L630 220L627 222L633 229L632 230L628 229L626 231L622 231L621 227L614 225L614 221L604 213L601 216L596 216L595 218L585 222L581 219L580 222L573 222L569 230L568 227L567 228L562 226L559 232L556 228L553 229L552 231L548 230L541 235L538 231L539 229L533 229L532 225L527 223L525 224L526 223L524 221L530 220L536 215L535 214L540 206L539 203L544 198L546 199L550 193L555 193L561 189L561 187L557 185L558 183L562 182L559 177L560 176L554 175L552 171L548 169L544 172L543 171L539 176L534 174L532 178L524 176L517 179L516 181L514 179L517 176L515 175L517 172L515 172L516 171L514 171L512 169L514 168L511 166L506 167L506 171L502 175L495 173L487 177L487 175L484 172L479 173L473 170L472 167L469 167L470 165L468 162L465 162L457 166L458 169L455 169L451 174L448 173L444 177L440 175L441 181L443 182L447 180L450 182L451 185L447 188L450 193L448 196L450 200L449 204L439 206L435 206L435 202L433 202L431 193L427 189L421 190L414 188L413 185L411 189L408 185L404 187L398 185L394 196L395 197L393 199L394 203L396 204L395 210L389 213L386 218L382 218L382 224L380 225L383 228L383 230L385 230L384 235L389 243L386 249L379 254L377 253L377 262L381 270L380 273L376 273L376 275L373 276L373 283L366 281L362 282L360 289L363 289L360 295L359 294L353 296L349 306L346 307L346 312L344 315L345 318L343 319L343 321L345 324L345 334L348 334L348 337L344 343L344 347L333 358L324 358L326 360L324 364L319 364L317 367L314 366L313 369L305 369L304 377L300 376L302 378L303 384L307 389L303 389L298 393L298 395L300 396L297 399L295 396L292 395L289 399L287 399L288 398L284 395L282 395L283 396L280 398L279 396L277 398L280 402L278 406L280 409L280 414L282 415L281 417L277 417L275 415L274 417L271 418L266 416L264 416L261 419L256 417L252 422L252 427L250 431L251 432L249 434L248 433L244 435L242 434L242 432L240 434L242 447L250 449L248 453L240 454L241 463L235 469L234 485L236 492L238 494L240 504L243 505L245 513L249 514L250 516L247 519L247 521L251 525L250 531L252 533L258 529L261 529L264 532L270 530L274 531L279 529L280 527L284 527L291 518L292 515L288 508L286 500L281 500L281 491L279 489L273 489L269 487L267 482L269 476L270 475L271 477L276 471L280 469L281 470L283 465L288 463L298 463L307 452L313 453L324 447L332 447L339 445L339 447L337 447L337 450L345 444L351 444L355 442L356 444L359 442L364 442L364 439L368 436L372 436L374 438L372 440L376 440L381 436L383 437L386 435L385 433L382 432L382 429L394 423L396 423L400 429L406 430L411 428L413 423L416 423L419 426L426 426L438 414L443 420L446 420L452 414L453 409L451 404L454 401zM716 308L712 306L708 309L707 307L703 309L715 312L716 308zM435 439L437 438L436 436L438 433L438 427L441 427L441 425L435 425L435 427L430 430L432 432L435 432L432 435L434 439zM419 438L421 438L421 436L425 436L428 434L426 433L428 429L425 429L423 432L421 432L422 433L419 438zM555 369L556 370L555 369zM517 403L515 402L516 403zM528 408L534 406L533 405L528 408zM495 409L496 408L494 407L495 409zM291 473L293 472L297 465L296 464L287 464L284 466L291 472zM413 432L414 432zM289 473L287 474L283 472L277 472L269 480L269 483L274 482L278 479L286 479L289 484L291 484L292 475L290 473zM502 409L503 409zM514 419L516 418L514 419zM396 441L398 440L396 440zM502 398L501 398zM514 406L514 406zM554 378L556 378L553 377zM498 412L499 409L497 409L498 412zM516 417L518 417L516 416zM496 415L498 413L496 412L496 414zM508 407L510 407L509 406zM458 421L462 418L458 418L458 420zM332 453L332 452zM506 401L506 401zM502 382L501 381zM502 401L503 398L502 401zM526 410L528 410L528 408L525 408L525 410zM460 412L460 412zM523 411L525 409L523 410zM458 415L457 416L458 414zM429 430L429 429zM553 362L553 363zM492 406L492 408L492 406zM692 494L691 496L698 496L700 500L697 504L691 505L692 507L698 507L701 505L702 497L698 493L695 493zM493 413L495 413L493 413zM568 374L568 373zM394 437L394 436zM442 437L443 436L440 436L441 437zM451 420L453 418L452 417L450 418L450 420zM392 435L392 434zM427 437L427 436zM555 362L556 363zM507 401L506 401zM560 369L560 369zM495 399L496 399zM555 379L556 378zM423 438L422 437zM282 500L284 500L283 498L282 500zM585 355L585 355zM514 407L514 406zM690 499L688 499zM494 402L495 403zM428 436L428 436zM298 483L295 482L291 485L294 488L298 484zM590 358L590 357zM292 525L294 522L293 523zM522 412L523 411zM283 467L285 468L284 467zM504 374L503 373zM436 439L437 438L436 439zM486 394L487 395zM282 471L284 472L283 471zM639 472L639 474L643 477L645 477L647 474L644 470L639 471zM638 480L638 482L642 484L639 478L638 479zM503 374L504 374z"/><path class="leaflet-interactive" stroke="white" stroke-opacity="1" stroke-width="0.5" stroke-linecap="round" stroke-linejoin="round" stroke-dasharray="1,6" fill="#fff" fill-opacity="0" fill-rule="evenodd" d="M473 355L479 358L491 373L497 372L493 359L486 350L483 337L485 334L491 331L504 331L504 329L507 328L507 315L510 315L513 319L514 315L512 313L512 307L509 306L510 305L506 302L502 293L503 294L509 288L517 284L517 279L514 274L505 274L499 277L497 280L496 279L496 282L491 282L489 285L490 290L488 293L485 290L480 292L477 288L474 288L472 293L468 294L468 296L465 297L460 304L447 308L447 310L448 309L449 311L449 315L452 315L452 322L454 322L454 320L457 317L461 320L461 324L463 326L461 328L463 334L461 334L464 337L466 336L465 342L468 343L468 349L471 352L475 353L472 354z"/><path class="leaflet-interactive" stroke="white" stroke-opacity="1" stroke-width="0.5" stroke-linecap="round" stroke-linejoin="round" stroke-dasharray="1,6" fill="#fff" fill-opacity="0.2" fill-rule="evenodd" d="M501 276L505 274L513 274L516 276L517 274L518 275L523 273L524 274L525 272L531 272L529 276L536 277L539 268L542 267L545 261L549 261L549 259L552 258L552 254L549 252L544 258L543 257L545 261L539 259L535 260L532 257L533 256L530 252L532 245L529 240L534 235L532 234L532 230L534 230L532 225L527 223L525 224L526 223L524 221L530 220L536 215L535 214L540 206L539 203L544 198L546 199L550 193L555 193L559 191L561 187L557 185L558 183L562 182L559 177L560 176L554 175L552 171L548 169L544 172L543 171L539 176L534 174L532 178L524 176L517 179L516 181L514 179L517 176L515 175L517 172L515 172L516 171L514 171L512 169L514 168L511 166L506 167L506 171L502 175L495 173L487 177L487 175L484 172L479 173L473 170L472 167L469 167L470 165L468 162L465 162L457 166L458 169L455 169L451 174L448 173L444 177L440 175L441 181L443 182L447 180L450 182L451 185L447 188L450 193L448 196L450 200L449 206L451 208L446 212L447 213L445 219L443 219L444 222L442 226L446 227L452 236L455 236L455 234L459 236L465 234L468 237L472 236L473 234L476 235L476 237L478 237L482 235L483 236L485 233L487 233L495 240L498 238L498 240L501 241L504 247L503 251L505 251L509 256L504 258L505 259L503 261L503 265L495 270L499 272L499 274L501 275z"/><path class="leaflet-interactive" stroke="white" stroke-opacity="1" stroke-width="0.5" stroke-linecap="round" stroke-linejoin="round" stroke-dasharray="1,6" fill="#fff" fill-opacity="0.2" fill-rule="evenodd" d="M528 353L525 355L527 357L525 364L523 359L513 355L513 353L512 354L510 351L506 349L505 351L503 351L503 353L498 358L498 362L501 368L503 369L506 378L511 374L517 374L525 370L529 372L530 370L538 367L541 368L544 372L544 377L546 379L553 376L553 371L550 370L550 367L552 365L551 363L542 363L540 355L537 356L536 353L532 353L530 355L529 354zM502 382L501 381zM504 374L503 373zM503 374L504 374z"/><path class="leaflet-interactive" stroke="white" stroke-opacity="1" stroke-width="0.5" stroke-linecap="round" stroke-linejoin="round" stroke-dasharray="1,6" fill="#fff" fill-opacity="0.2" fill-rule="evenodd" d="M466 382L463 381L462 383L460 381L460 383L462 384L461 391L455 396L455 405L466 418L470 415L471 411L476 410L480 405L486 403L484 396L488 391L487 389L489 387L488 386L490 385L492 378L489 378L488 381L484 380L481 382L482 387L479 388L482 391L477 395L471 391L467 382zM517 403L515 402L516 403zM528 408L534 406L533 405L528 408zM495 409L496 408L494 407L495 409zM502 409L503 409zM514 419L516 418L514 419zM502 398L501 398zM514 406L514 406zM498 412L499 409L497 409L498 412zM516 417L518 417L516 416zM508 407L510 407L509 406zM458 421L462 418L458 418L458 420zM496 415L498 413L496 412L496 414zM506 401L506 401zM502 401L503 398L502 401zM526 410L528 410L528 408L525 408L525 410zM460 412L460 412zM523 411L525 409L523 410zM458 415L457 416L458 414zM492 406L492 408L492 406zM493 413L495 413L493 413zM507 401L506 401zM495 399L496 399zM514 407L514 406zM494 402L495 403zM522 412L523 411zM486 394L487 395z"/><path class="leaflet-interactive" stroke="white" stroke-opacity="1" stroke-width="0.5" stroke-linecap="round" stroke-linejoin="round" stroke-dasharray="1,6" fill="#fff" fill-opacity="0.2" fill-rule="evenodd" d="M678 332L679 330L684 329L689 324L693 326L694 325L695 323L693 321L693 317L700 306L700 296L696 294L696 296L693 297L693 299L688 298L688 309L682 309L680 307L679 313L676 309L672 308L674 306L673 304L670 306L669 304L667 304L665 308L663 308L663 310L665 311L665 316L663 316L664 317L659 325L658 330L664 333L667 337L673 332L676 333zM716 308L712 306L708 309L707 307L703 309L715 312L716 308z"/><path class="leaflet-interactive" stroke="white" stroke-opacity="1" stroke-width="0.5" stroke-linecap="round" stroke-linejoin="round" stroke-dasharray="1,6" fill="#fff" fill-opacity="0" fill-rule="evenodd" d="M448 307L447 308L443 305L443 300L442 301L441 299L438 301L440 303L439 306L436 308L437 309L435 312L437 314L437 312L439 312L442 315L441 319L438 322L439 323L437 325L436 323L436 325L434 325L439 338L434 341L433 340L432 344L428 344L429 347L428 346L424 349L421 348L421 352L417 352L411 355L410 356L412 362L419 358L421 361L419 362L419 364L422 363L424 360L428 360L430 356L429 360L432 361L437 358L437 354L440 353L441 350L448 353L453 353L456 361L460 362L462 362L465 357L467 359L473 355L472 354L474 353L469 351L469 348L467 347L468 344L465 339L466 336L464 337L461 335L463 332L463 329L461 329L463 327L461 324L461 320L457 317L454 320L454 322L452 322L452 315L449 315L449 311L448 308L447 310L447 308zM436 339L436 339z"/><path class="leaflet-interactive" stroke="white" stroke-opacity="1" stroke-width="0.5" stroke-linecap="round" stroke-linejoin="round" stroke-dasharray="1,6" fill="#fff" fill-opacity="0.2" fill-rule="evenodd" d="M395 382L394 386L391 385L389 389L387 391L386 390L385 392L388 395L387 400L392 400L394 403L395 402L398 405L400 405L399 408L407 413L407 417L409 419L407 420L408 421L404 427L405 430L411 428L413 423L416 423L419 426L426 426L438 414L443 420L449 418L453 411L451 404L455 400L455 396L461 391L462 384L460 382L466 382L466 379L463 373L461 372L459 366L460 362L455 359L453 353L448 353L442 350L439 351L440 353L437 354L437 358L433 361L430 360L430 356L428 360L424 360L420 364L420 360L417 359L417 368L415 368L412 363L409 371L405 369L405 373L401 374L401 381L397 381L396 383zM435 439L437 438L436 436L438 433L438 427L441 427L441 425L435 425L435 427L430 430L432 432L435 432L432 435L434 439zM419 438L421 438L421 436L425 436L428 434L426 433L428 429L425 429L423 432L421 432L422 433L419 438zM413 432L414 432zM429 430L429 429zM442 437L443 436L440 436L441 437zM451 420L453 418L452 417L450 418L450 420zM427 437L427 436zM423 438L422 437zM428 436L428 436zM436 439L437 438L436 439z"/><path class="leaflet-interactive" stroke="white" stroke-opacity="1" stroke-width="0.5" stroke-linecap="round" stroke-linejoin="round" stroke-dasharray="1,6" fill="#fff" fill-opacity="0.2" fill-rule="evenodd" d="M298 463L297 458L294 460L290 457L293 453L291 453L287 447L289 445L287 440L283 439L284 438L281 433L283 432L281 432L279 429L281 423L279 423L278 420L281 419L281 417L277 417L275 415L274 417L271 418L266 416L264 416L261 419L256 417L252 422L252 427L250 431L251 432L249 434L248 433L244 435L242 434L242 432L240 434L242 447L250 449L248 453L240 454L241 463L235 469L234 485L236 492L238 494L240 504L243 505L245 513L249 514L250 516L247 519L247 521L251 525L250 531L252 533L258 529L261 529L264 532L270 530L277 530L280 527L284 527L291 518L292 515L288 508L286 500L281 500L281 491L279 489L273 489L269 487L267 482L269 476L270 475L271 477L276 471L280 469L281 470L283 465L288 463L296 463zM289 444L289 446L287 447L292 453L290 457L294 460L297 458L298 463L307 452L313 453L319 450L318 448L313 448L314 447L312 443L311 444L311 442L309 441L307 437L308 435L306 434L303 435L303 444L300 442L300 444L296 445L292 443L291 446L289 444zM282 416L285 413L282 412L280 414L282 415zM281 424L281 425zM291 473L293 472L297 465L296 464L287 464L284 466L291 472zM289 473L287 474L283 472L277 472L269 480L269 483L274 482L278 479L286 479L289 484L291 484L292 475L290 473zM302 442L302 442zM282 500L284 500L283 498L282 500zM298 483L295 482L291 485L294 488L298 484zM292 525L294 522L293 523zM283 467L285 468L284 467zM282 471L284 472L283 471z"/><path class="leaflet-interactive" stroke="white" stroke-opacity="1" stroke-width="0.5" stroke-linecap="round" stroke-linejoin="round" stroke-dasharray="1,6" fill="#fff" fill-opacity="0.2" fill-rule="evenodd" d="M302 442L304 438L303 435L306 434L311 444L312 443L314 449L316 447L319 450L324 447L332 447L339 445L339 447L337 447L337 450L345 444L350 443L347 437L349 430L345 426L345 424L348 422L346 419L340 416L339 406L340 403L342 402L341 401L343 394L350 390L351 386L359 383L364 377L364 375L360 375L360 371L357 372L354 376L352 374L351 377L348 379L346 376L347 373L342 373L338 375L339 371L341 371L338 368L336 369L331 366L327 360L324 364L319 364L317 367L314 366L313 369L305 369L304 377L300 376L302 378L303 384L307 389L303 389L298 393L298 395L300 396L297 399L295 396L292 395L289 399L287 399L288 398L284 395L282 395L283 396L280 398L279 396L277 398L280 402L278 406L280 409L279 410L281 413L285 413L281 417L282 419L279 418L278 423L279 422L281 424L279 429L281 432L283 432L281 432L283 436L282 437L284 437L284 439L287 440L287 442L291 446L292 443L295 443L296 445L300 445L301 443zM289 444L289 445zM281 426L281 424L280 426zM302 442L303 444zM332 453L332 452zM287 447L287 447z"/><path class="leaflet-interactive" stroke="white" stroke-opacity="1" stroke-width="0.5" stroke-linecap="round" stroke-linejoin="round" stroke-dasharray="1,6" fill="#fff" fill-opacity="0" fill-rule="evenodd" d="M438 301L436 301L433 295L435 295L435 292L431 291L433 287L430 287L430 284L428 282L429 275L427 273L419 271L416 261L412 260L414 255L414 249L412 249L409 245L403 242L404 245L402 247L401 246L402 249L398 255L395 256L390 251L386 256L382 253L377 253L377 262L381 270L380 273L376 273L376 275L373 276L373 283L366 281L362 282L360 289L363 289L360 295L359 294L352 297L349 306L346 307L344 317L348 317L351 320L353 320L354 317L358 322L355 323L355 325L361 326L362 328L369 330L382 330L386 334L397 334L403 330L406 332L403 336L404 343L402 343L401 346L405 346L405 354L410 354L410 356L417 352L421 352L421 348L423 349L428 346L429 347L429 343L430 345L432 344L433 340L434 341L439 338L434 325L436 325L436 323L437 325L439 323L438 322L442 315L440 315L439 312L437 312L437 314L435 312L440 303L438 302z"/><path class="leaflet-interactive" stroke="white" stroke-opacity="1" stroke-width="0.5" stroke-linecap="round" stroke-linejoin="round" stroke-dasharray="1,6" fill="#fff" fill-opacity="0" fill-rule="evenodd" d="M547 363L552 361L552 359L558 356L559 354L562 356L560 364L562 369L570 368L570 372L572 371L574 365L580 360L578 358L578 355L574 353L575 352L573 349L573 345L576 345L583 339L587 340L591 336L593 336L597 333L596 329L599 328L605 322L602 318L598 318L598 315L596 313L589 313L581 317L578 316L577 319L575 315L572 317L568 328L564 324L564 318L562 316L560 317L558 311L554 311L558 307L557 305L559 303L556 302L556 300L554 302L551 300L549 298L547 291L542 291L538 287L537 289L536 288L536 277L530 276L531 273L526 272L518 275L517 274L517 285L514 285L512 288L508 288L503 294L502 293L502 295L505 297L505 302L512 306L511 309L513 309L514 312L512 313L513 318L510 315L506 316L507 327L504 329L504 331L511 331L514 334L518 332L523 338L522 340L528 341L527 343L530 348L528 348L528 353L530 355L532 353L536 353L537 356L540 355L540 359L542 361L541 362L546 363zM555 369L556 370L555 369zM554 378L556 378L553 377zM553 362L553 363zM568 374L568 373zM555 362L556 363zM560 369L560 369zM555 379L556 378z"/><path class="leaflet-interactive" stroke="white" stroke-opacity="1" stroke-width="0.5" stroke-linecap="round" stroke-linejoin="round" stroke-dasharray="1,6" fill="#fff" fill-opacity="0" fill-rule="evenodd" d="M666 288L669 285L674 287L676 283L674 279L680 276L682 271L687 271L687 266L690 266L691 263L692 264L692 259L694 257L698 257L703 252L703 250L701 249L701 245L696 238L697 235L695 235L691 231L691 228L695 224L694 221L692 221L691 223L681 223L676 227L675 220L673 218L672 219L666 212L669 210L668 207L662 213L657 213L658 212L655 209L655 207L651 210L646 208L644 205L642 206L634 203L636 207L633 208L634 207L631 205L630 208L628 208L629 209L627 213L627 219L630 220L627 222L633 229L622 231L620 226L612 224L610 227L611 229L609 231L610 234L616 237L613 244L616 251L615 255L613 255L613 257L611 256L613 262L611 262L610 260L609 261L609 259L606 261L605 265L607 267L607 272L604 274L600 282L601 283L598 286L600 287L603 285L605 291L607 291L607 301L605 305L608 311L607 313L611 312L611 310L614 309L622 300L624 303L628 303L630 301L629 296L632 293L636 296L643 292L643 294L652 296L654 295L654 291L657 288L662 285L664 285L665 287z"/><path class="leaflet-interactive" stroke="white" stroke-opacity="1" stroke-width="0.5" stroke-linecap="round" stroke-linejoin="round" stroke-dasharray="1,6" fill="#fff" fill-opacity="0.2" fill-rule="evenodd" d="M617 306L611 310L611 312L608 315L608 317L610 317L600 326L600 328L596 328L597 333L595 333L587 340L583 339L581 342L573 346L575 352L574 353L578 355L580 360L579 359L582 354L587 353L589 355L590 352L595 352L593 353L593 355L600 355L600 359L602 361L608 361L615 364L614 361L617 358L613 357L616 350L622 349L626 351L629 353L630 358L635 354L639 354L646 350L648 352L656 347L657 345L655 344L653 347L650 347L643 343L641 345L641 342L640 343L638 340L640 338L637 338L639 338L640 336L637 332L634 331L633 333L628 328L625 327L625 325L626 326L627 324L626 323L631 321L629 319L631 316L628 313L621 315L622 311L617 307zM692 494L691 496L698 496L700 500L697 504L691 505L692 507L698 507L701 505L702 497L698 493L695 493zM585 355L585 355zM690 499L688 499zM590 358L590 357zM639 472L639 474L643 477L645 477L647 474L644 470L639 471zM638 480L638 482L642 484L639 478L638 479z"/><path class="leaflet-interactive" stroke="white" stroke-opacity="1" stroke-width="0.5" stroke-linecap="round" stroke-linejoin="round" stroke-dasharray="1,6" fill="#fff" fill-opacity="0" fill-rule="evenodd" d="M605 322L605 320L607 320L609 317L609 313L607 313L608 311L605 306L607 301L607 291L604 290L603 285L600 287L599 286L601 284L600 283L604 274L607 272L607 268L605 265L606 262L609 259L609 261L610 260L611 262L613 262L610 256L613 257L613 255L615 255L616 252L613 244L616 237L609 233L611 229L610 227L612 224L614 224L614 222L608 215L604 213L601 216L596 216L595 218L585 222L581 219L580 222L573 222L569 230L568 227L567 228L562 226L559 232L556 228L553 229L552 231L548 230L541 235L538 231L539 229L533 229L534 230L532 230L531 232L534 235L529 240L530 244L532 244L530 251L533 256L532 257L535 260L541 259L542 261L544 261L543 257L544 258L549 253L552 254L552 258L550 258L549 261L548 259L546 262L545 261L542 267L538 269L539 270L535 280L535 285L537 289L538 287L541 291L547 291L550 299L553 302L555 300L556 302L559 303L557 305L559 307L554 311L558 311L560 317L561 316L564 318L564 324L568 328L572 320L572 316L574 315L577 319L580 316L581 317L585 314L593 312L598 315L598 318L602 318L604 322z"/><path class="leaflet-interactive" stroke="white" stroke-opacity="1" stroke-width="0.5" stroke-linecap="round" stroke-linejoin="round" stroke-dasharray="1,6" fill="#fff" fill-opacity="0.2" fill-rule="evenodd" d="M405 430L404 427L408 421L407 420L409 419L407 417L407 413L404 410L400 409L400 405L395 402L394 403L392 400L387 401L388 396L385 392L389 389L390 385L395 385L395 381L390 380L384 374L383 371L385 369L383 365L378 369L374 368L377 365L377 363L374 361L372 364L373 365L368 369L363 379L359 383L350 386L350 390L343 394L342 401L339 405L339 416L341 416L348 422L345 424L345 428L349 430L347 437L351 444L355 442L356 444L359 442L364 442L364 439L368 436L372 436L374 438L372 440L376 440L381 436L383 437L386 435L385 433L382 432L382 429L394 423L396 423L400 429L404 430zM396 441L398 440L396 440zM394 437L394 436zM392 435L392 434z"/><path class="leaflet-interactive" stroke="white" stroke-opacity="1" stroke-width="0.5" stroke-linecap="round" stroke-linejoin="round" stroke-dasharray="1,6" fill="#fff" fill-opacity="0" fill-rule="evenodd" d="M449 204L435 206L435 202L433 202L431 193L427 189L421 190L414 188L413 185L411 189L408 185L404 187L398 185L394 196L395 197L393 199L394 203L396 204L395 210L389 213L386 218L382 218L382 224L380 225L383 228L383 230L385 230L384 235L389 243L386 249L381 253L385 256L388 256L387 254L390 251L395 256L398 255L399 252L401 252L401 247L404 246L403 243L409 245L412 249L414 249L414 255L412 259L416 261L418 271L421 271L429 275L427 282L430 284L430 286L433 287L431 290L435 294L433 295L433 297L436 298L436 301L440 299L442 301L443 300L444 301L442 303L446 308L462 303L462 300L471 293L474 288L477 288L480 292L484 290L488 293L490 288L490 282L495 282L495 280L497 280L501 275L495 270L498 267L500 268L504 263L504 258L509 256L506 253L507 252L504 251L501 241L496 238L496 240L492 236L488 235L488 233L485 233L479 237L476 237L476 235L473 234L468 237L465 234L463 234L462 236L455 234L455 236L453 236L446 227L442 227L444 222L443 219L445 219L447 213L446 212L451 208L449 206L450 205z"/><path class="leaflet-interactive" stroke="white" stroke-opacity="1" stroke-width="0.5" stroke-linecap="round" stroke-linejoin="round" stroke-dasharray="1,6" fill="#fff" fill-opacity="0" fill-rule="evenodd" d="M528 353L528 348L530 348L530 346L527 344L527 340L522 340L523 338L518 332L515 334L511 331L510 332L495 330L492 332L488 332L483 336L483 341L486 346L486 350L493 359L497 359L500 357L503 351L506 350L510 351L514 356L517 355L518 357L520 357L520 359L523 359L525 364L527 359L525 355L527 353z"/><path class="leaflet-interactive" stroke="white" stroke-opacity="1" stroke-width="0.5" stroke-linecap="round" stroke-linejoin="round" stroke-dasharray="1,6" fill="#fff" fill-opacity="0.2" fill-rule="evenodd" d="M486 380L494 373L491 373L483 362L473 355L467 359L465 357L459 365L472 392L476 395L482 392L480 388L481 381L484 380z"/><path class="leaflet-interactive" stroke="white" stroke-opacity="1" stroke-width="0.5" stroke-linecap="round" stroke-linejoin="round" stroke-dasharray="1,6" fill="#fff" fill-opacity="0.2" fill-rule="evenodd" d="M701 302L707 304L711 301L712 302L719 300L719 295L712 293L708 281L707 279L705 279L704 276L706 272L703 267L704 265L702 265L702 260L706 257L704 254L701 253L698 258L697 256L692 259L692 263L687 266L687 271L684 270L681 272L683 273L681 273L681 276L675 279L674 278L676 280L675 286L672 287L670 285L666 289L671 293L675 293L677 296L676 297L679 300L677 304L684 310L688 309L688 299L690 297L691 299L693 299L693 297L695 297L696 294L700 297L701 300z"/><path class="leaflet-interactive" stroke="white" stroke-opacity="1" stroke-width="0.5" stroke-linecap="round" stroke-linejoin="round" stroke-dasharray="1,6" fill="#fff" fill-opacity="0.2" fill-rule="evenodd" d="M678 332L673 332L667 337L664 333L661 333L658 330L660 325L659 324L661 323L664 317L663 316L665 316L663 308L665 308L667 304L669 304L670 307L673 304L674 305L672 308L677 310L679 313L680 308L683 308L678 306L677 302L679 301L675 293L668 291L663 285L656 289L654 292L655 295L653 296L648 296L641 292L636 296L633 293L629 296L630 301L628 303L624 303L622 300L618 304L617 307L622 311L621 315L628 313L631 316L629 318L631 320L630 322L627 322L625 327L628 328L633 333L636 330L640 336L637 338L640 338L639 343L640 342L641 345L643 343L649 347L652 347L655 344L658 345L662 343L667 345L675 344L679 339L679 333z"/><path class="leaflet-interactive" stroke="white" stroke-opacity="1" stroke-width="0.5" stroke-linecap="round" stroke-linejoin="round" stroke-dasharray="1,6" fill="#fff" fill-opacity="0" fill-rule="evenodd" d="M416 360L411 362L409 355L410 354L406 354L404 345L401 346L401 343L403 343L404 339L403 336L406 333L405 331L400 331L397 334L386 334L382 330L378 331L365 328L364 329L362 326L355 325L355 323L357 322L355 317L353 320L351 320L348 317L343 319L345 324L345 334L348 334L348 337L344 343L344 347L333 358L324 358L327 361L329 361L332 367L341 370L339 371L338 374L347 373L347 379L351 378L352 374L354 376L357 373L356 372L359 371L360 374L364 374L364 376L375 361L377 365L375 366L376 367L373 368L378 369L382 365L385 369L383 371L385 375L393 381L394 380L397 384L398 381L401 381L401 374L403 374L406 369L406 371L409 370L412 364L411 363L413 363L413 367L418 367L416 362L417 361z"/></g></svg>